<svg xmlns="http://www.w3.org/2000/svg" viewBox="0 0 256 256" role="img" aria-labelledby="title desc">
  <title id="title">投资经营学视觉标识</title>
  <desc id="desc">一间小餐馆与一本打开的经营账本组成的图形。</desc>
  <rect width="256" height="256" rx="48" fill="#102B3A"/>
  <path d="M54 68h148l-12-24H66L54 68Z" fill="#F2E3C5"/>
  <path d="M54 68h37v24c0 12-8 20-19 20S54 104 54 92V68Z" fill="#C96A32"/>
  <path d="M91 68h37v24c0 12-8 20-19 20S91 104 91 92V68Z" fill="#F2E3C5"/>
  <path d="M128 68h37v24c0 12-8 20-19 20s-18-8-18-20V68Z" fill="#C96A32"/>
  <path d="M165 68h37v24c0 12-8 20-19 20s-18-8-18-20V68Z" fill="#F2E3C5"/>
  <path d="M64 110v88h128v-88" fill="none" stroke="#F2E3C5" stroke-width="12" stroke-linecap="round"/>
  <path d="M77 139c19-7 36-4 51 8v48c-15-12-32-15-51-8v-48Z" fill="#F2E3C5"/>
  <path d="M179 139c-19-7-36-4-51 8v48c15-12 32-15 51-8v-48Z" fill="#F2E3C5"/>
  <path d="M128 147v48" stroke="#C96A32" stroke-width="6" stroke-linecap="round"/>
  <circle cx="128" cy="122" r="7" fill="#C96A32"/>
</svg>
